# Blender v2.82 (sub 7) OBJ File: ''
# www.blender.org
mtllib 01-b32mm-only.mtl
o 01-Base_Base.003
v 0.000000 0.137688 -0.578501
v 0.123753 0.011946 -0.608121
v 0.000000 0.011946 -0.620035
v 0.115463 0.137688 -0.567384
v 0.242751 0.011946 -0.572837
v 0.226489 0.137688 -0.534465
v 0.352419 0.011946 -0.515541
v 0.328811 0.137688 -0.481007
v 0.448545 0.011946 -0.438431
v 0.418498 0.137688 -0.409061
v 0.527433 0.011946 -0.344473
v 0.492103 0.137688 -0.321397
v 0.586051 0.011946 -0.237278
v 0.546794 0.137688 -0.221382
v 0.622149 0.011946 -0.120963
v 0.580472 0.137688 -0.112859
v 0.634338 0.011946 0.000000
v 0.591846 0.137688 0.000000
v 0.622149 0.011946 0.120963
v 0.580472 0.137688 0.112859
v 0.586051 0.011946 0.237278
v 0.546794 0.137688 0.221382
v 0.527433 0.011946 0.344473
v 0.492103 0.137688 0.321397
v 0.448545 0.011946 0.438431
v 0.418498 0.137688 0.409061
v 0.352419 0.011946 0.515541
v 0.328811 0.137688 0.481005
v 0.242751 0.011946 0.572837
v 0.226489 0.137688 0.534465
v 0.123753 0.011946 0.608121
v 0.115463 0.137688 0.567384
v 0.000000 0.011946 0.620035
v 0.000000 0.137688 0.578501
v -0.123753 0.011946 0.608121
v -0.115463 0.137688 0.567384
v -0.242751 0.011946 0.572837
v -0.226489 0.137688 0.534465
v -0.352419 0.011946 0.515541
v -0.328811 0.137688 0.481005
v -0.448545 0.011946 0.438431
v -0.418498 0.137688 0.409061
v -0.527433 0.011946 0.344473
v -0.492103 0.137688 0.321397
v -0.586054 0.011946 0.237278
v -0.546795 0.137688 0.221382
v -0.622149 0.011946 0.120963
v -0.580472 0.137688 0.112859
v -0.634338 0.011946 0.000000
v -0.591846 0.137688 0.000000
v -0.622149 0.011946 -0.120963
v -0.580472 0.137688 -0.112859
v -0.586051 0.011946 -0.237279
v -0.546794 0.137688 -0.221383
v -0.527432 0.011946 -0.344474
v -0.492101 0.137688 -0.321400
v -0.448545 0.011946 -0.438433
v -0.418498 0.137688 -0.409063
v -0.352419 0.011946 -0.515541
v -0.328810 0.137688 -0.481007
v -0.242751 0.011946 -0.572839
v -0.226489 0.137688 -0.534466
v -0.123753 0.011946 -0.608121
v -0.115463 0.137688 -0.567384
vt 0.999612 0.748029
vt 0.980278 0.779157
vt 0.980278 0.748030
vt 0.999612 0.779156
vt 0.980278 0.810283
vt 0.999612 0.810282
vt 0.980278 0.841410
vt 0.999612 0.841409
vt 0.980278 0.872536
vt 0.999612 0.872535
vt 0.980278 0.903663
vt 0.999612 0.903662
vt 0.980278 0.934789
vt 0.999612 0.934788
vt 0.980278 0.965916
vt 0.999612 0.965915
vt 0.980278 0.997042
vt 0.999612 0.000995
vt 0.980278 0.032120
vt 0.980278 0.000993
vt 0.999612 0.032122
vt 0.980278 0.063246
vt 0.999612 0.063248
vt 0.980278 0.094373
vt 0.999612 0.094374
vt 0.980278 0.125499
vt 0.999612 0.125501
vt 0.980278 0.156626
vt 0.999612 0.156627
vt 0.980278 0.187752
vt 0.999612 0.187754
vt 0.980278 0.218879
vt 0.999612 0.218880
vt 0.980278 0.250005
vt 0.999612 0.250007
vt 0.980278 0.281132
vt 0.999612 0.281133
vt 0.980278 0.312258
vt 0.999612 0.312259
vt 0.980278 0.343385
vt 0.999612 0.343386
vt 0.980278 0.374512
vt 0.999612 0.374512
vt 0.980278 0.405638
vt 0.999612 0.405639
vt 0.980278 0.436765
vt 0.999612 0.436765
vt 0.980278 0.467891
vt 0.999612 0.467892
vt 0.980278 0.499018
vt 0.999612 0.499018
vt 0.980278 0.530144
vt 0.999612 0.530145
vt 0.980278 0.561271
vt 0.999612 0.561271
vt 0.980278 0.592397
vt 0.999612 0.592397
vt 0.980278 0.623524
vt 0.999612 0.623524
vt 0.980278 0.654651
vt 0.999612 0.654650
vt 0.980278 0.685777
vt 0.435981 0.013979
vt 0.602624 0.087418
vt 0.529184 0.254061
vt 0.999612 0.685777
vt 0.980278 0.716904
vt 0.999612 0.716903
vt 0.823618 0.260944
vt 0.675538 0.154946
vt 0.781536 0.006866
vt 0.999612 0.997041
vt 0.362541 0.180621
vt 0.355756 0.156307
vt 0.353845 0.131136
vt 0.356881 0.106076
vt 0.364748 0.082090
vt 0.377143 0.060100
vt 0.393590 0.040950
vt 0.413458 0.025377
vt 0.460295 0.007194
vt 0.485466 0.005282
vt 0.510526 0.008319
vt 0.534512 0.016185
vt 0.556503 0.028581
vt 0.575652 0.045028
vt 0.591226 0.064895
vt 0.609409 0.111732
vt 0.611320 0.136903
vt 0.608284 0.161963
vt 0.600417 0.185949
vt 0.588022 0.207940
vt 0.571575 0.227090
vt 0.551708 0.242663
vt 0.504870 0.260846
vt 0.479699 0.262757
vt 0.454639 0.259721
vt 0.430653 0.251854
vt 0.408663 0.239459
vt 0.389513 0.223012
vt 0.373940 0.203145
vt 0.929616 0.112864
vt 0.931280 0.138052
vt 0.927998 0.163081
vt 0.919896 0.186989
vt 0.907285 0.208857
vt 0.890651 0.227844
vt 0.870632 0.243222
vt 0.847998 0.254398
vt 0.798430 0.262608
vt 0.773401 0.259326
vt 0.749493 0.251224
vt 0.727625 0.238613
vt 0.708638 0.221979
vt 0.693261 0.201960
vt 0.682084 0.179326
vt 0.673874 0.129758
vt 0.677156 0.104729
vt 0.685258 0.080821
vt 0.697869 0.058953
vt 0.714503 0.039966
vt 0.734522 0.024589
vt 0.757156 0.013412
vt 0.806724 0.005202
vt 0.831753 0.008484
vt 0.855661 0.016586
vt 0.877529 0.029197
vt 0.896516 0.045831
vt 0.911894 0.065850
vt 0.923070 0.088484
vn 0.0910 0.3123 -0.9456
vn 0.2700 0.3128 -0.9106
vn 0.4397 0.3137 -0.8416
vn 0.5939 0.3148 -0.7404
vn 0.7266 0.3161 -0.6101
vn 0.7266 0.3161 -0.6100
vn 0.8321 0.3173 -0.4550
vn 0.9054 0.3182 -0.2810
vn 0.9431 0.3187 -0.0950
vn 0.9431 0.3187 0.0950
vn 0.9054 0.3182 0.2810
vn 0.8321 0.3173 0.4550
vn 0.7266 0.3161 0.6101
vn 0.7266 0.3161 0.6100
vn 0.5939 0.3148 0.7404
vn 0.4397 0.3137 0.8416
vn 0.2700 0.3128 0.9106
vn 0.0910 0.3123 0.9456
vn -0.0910 0.3123 0.9456
vn -0.2700 0.3128 0.9106
vn -0.4397 0.3137 0.8416
vn -0.5939 0.3148 0.7404
vn -0.5939 0.3149 0.7404
vn -0.7266 0.3161 0.6101
vn -0.7266 0.3161 0.6100
vn -0.8320 0.3173 0.4550
vn -0.9054 0.3182 0.2810
vn -0.9431 0.3187 0.0950
vn -0.9431 0.3187 -0.0950
vn -0.9054 0.3182 -0.2810
vn -0.8320 0.3173 -0.4550
vn -0.7266 0.3161 -0.6100
vn -0.5939 0.3148 -0.7404
vn -0.5939 0.3149 -0.7404
vn -0.4397 0.3137 -0.8416
vn 0.0000 1.0000 0.0000
vn -0.2700 0.3128 -0.9106
vn -0.0910 0.3123 -0.9456
vn -0.0910 0.3124 -0.9456
vn 0.0000 -1.0000 -0.0000
vn 0.0910 0.3124 -0.9456
vn 0.5939 0.3149 0.7404
vn -0.0910 0.3124 0.9456
usemtl Material.004
s 1
f 1/1/1 2/2/1 3/3/1
f 4/4/2 5/5/2 2/2/2
f 6/6/3 7/7/3 5/5/3
f 8/8/4 9/9/4 7/7/4
f 10/10/5 11/11/5 9/9/6
f 12/12/7 13/13/7 11/11/7
f 14/14/8 15/15/8 13/13/8
f 16/16/9 17/17/9 15/15/9
f 18/18/10 19/19/10 17/20/10
f 20/21/11 21/22/11 19/19/11
f 22/23/12 23/24/12 21/22/12
f 24/25/13 25/26/13 23/24/14
f 26/27/15 27/28/15 25/26/15
f 28/29/16 29/30/16 27/28/16
f 30/31/17 31/32/17 29/30/17
f 32/33/18 33/34/18 31/32/18
f 34/35/19 35/36/19 33/34/19
f 36/37/20 37/38/20 35/36/20
f 38/39/21 39/40/21 37/38/21
f 40/41/22 41/42/22 39/40/23
f 42/43/24 43/44/24 41/42/25
f 44/45/26 45/46/26 43/44/26
f 46/47/27 47/48/27 45/46/27
f 48/49/28 49/50/28 47/48/28
f 50/51/29 51/52/29 49/50/29
f 52/53/30 53/54/30 51/52/30
f 54/55/31 55/56/31 53/54/31
f 56/57/32 57/58/32 55/56/32
f 58/59/33 59/60/33 57/58/34
f 60/61/35 61/62/35 59/60/35
f 54/63/36 38/64/36 22/65/36
f 62/66/37 63/67/37 61/62/37
f 64/68/38 3/3/38 63/67/39
f 15/69/40 31/70/40 47/71/40
f 1/1/1 4/4/41 2/2/1
f 4/4/2 6/6/2 5/5/2
f 6/6/3 8/8/3 7/7/3
f 8/8/4 10/10/4 9/9/4
f 10/10/5 12/12/5 11/11/5
f 12/12/7 14/14/7 13/13/7
f 14/14/8 16/16/8 15/15/8
f 16/16/9 18/72/9 17/17/9
f 18/18/10 20/21/10 19/19/10
f 20/21/11 22/23/11 21/22/11
f 22/23/12 24/25/12 23/24/12
f 24/25/13 26/27/13 25/26/13
f 26/27/15 28/29/42 27/28/15
f 28/29/16 30/31/16 29/30/16
f 30/31/17 32/33/17 31/32/17
f 32/33/18 34/35/18 33/34/18
f 34/35/19 36/37/43 35/36/19
f 36/37/20 38/39/20 37/38/20
f 38/39/21 40/41/21 39/40/21
f 40/41/22 42/43/22 41/42/22
f 42/43/24 44/45/24 43/44/24
f 44/45/26 46/47/26 45/46/26
f 46/47/27 48/49/27 47/48/27
f 48/49/28 50/51/28 49/50/28
f 50/51/29 52/53/29 51/52/29
f 52/53/30 54/55/30 53/54/30
f 54/55/31 56/57/31 55/56/31
f 56/57/32 58/59/32 57/58/32
f 58/59/33 60/61/33 59/60/33
f 60/61/35 62/66/35 61/62/35
f 6/73/36 4/74/36 1/75/36
f 1/75/36 64/76/36 6/73/36
f 64/76/36 62/77/36 6/73/36
f 62/77/36 60/78/36 58/79/36
f 58/79/36 56/80/36 54/63/36
f 54/63/36 52/81/36 50/82/36
f 50/82/36 48/83/36 54/63/36
f 48/83/36 46/84/36 54/63/36
f 46/84/36 44/85/36 38/64/36
f 44/85/36 42/86/36 38/64/36
f 42/86/36 40/87/36 38/64/36
f 38/64/36 36/88/36 34/89/36
f 34/89/36 32/90/36 30/91/36
f 30/91/36 28/92/36 26/93/36
f 26/93/36 24/94/36 22/65/36
f 22/65/36 20/95/36 18/96/36
f 18/96/36 16/97/36 22/65/36
f 16/97/36 14/98/36 22/65/36
f 14/98/36 12/99/36 10/100/36
f 10/100/36 8/101/36 6/73/36
f 62/77/36 58/79/36 6/73/36
f 58/79/36 54/63/36 6/73/36
f 38/64/36 34/89/36 22/65/36
f 34/89/36 30/91/36 22/65/36
f 30/91/36 26/93/36 22/65/36
f 14/98/36 10/100/36 22/65/36
f 10/100/36 6/73/36 22/65/36
f 54/63/36 46/84/36 38/64/36
f 6/73/36 54/63/36 22/65/36
f 62/66/37 64/68/37 63/67/37
f 64/68/38 1/1/38 3/3/38
f 63/102/40 3/103/40 2/104/40
f 2/104/40 5/105/40 7/106/40
f 7/106/40 9/107/40 11/108/40
f 11/108/40 13/109/40 7/106/40
f 13/109/40 15/69/40 7/106/40
f 15/69/40 17/110/40 19/111/40
f 19/111/40 21/112/40 15/69/40
f 21/112/40 23/113/40 15/69/40
f 23/113/40 25/114/40 31/70/40
f 25/114/40 27/115/40 31/70/40
f 27/115/40 29/116/40 31/70/40
f 31/70/40 33/117/40 35/118/40
f 35/118/40 37/119/40 39/120/40
f 39/120/40 41/121/40 43/122/40
f 43/122/40 45/123/40 47/71/40
f 47/71/40 49/124/40 51/125/40
f 51/125/40 53/126/40 55/127/40
f 55/127/40 57/128/40 63/102/40
f 57/128/40 59/129/40 63/102/40
f 59/129/40 61/130/40 63/102/40
f 63/102/40 2/104/40 7/106/40
f 31/70/40 35/118/40 47/71/40
f 35/118/40 39/120/40 47/71/40
f 39/120/40 43/122/40 47/71/40
f 47/71/40 51/125/40 63/102/40
f 51/125/40 55/127/40 63/102/40
f 63/102/40 7/106/40 15/69/40
f 15/69/40 23/113/40 31/70/40
f 63/102/40 15/69/40 47/71/40
