# Blender v2.82 (sub 7) OBJ File: ''
# www.blender.org
mtllib corppanel.mtl
o Cube.001
v 4.000000 -0.037499 -3.500000
v 4.000000 -0.037501 3.500000
v -4.000000 -0.037501 3.499999
v -3.999999 -0.037499 -3.500001
v 4.000002 0.037501 -3.499998
v -4.000000 0.037501 -3.500000
v -4.000001 0.037499 3.499999
v 3.999997 0.037499 3.500002
vt -0.000908 0.999344
vt -0.000908 0.002010
vt 1.002143 0.002010
vt 1.002143 0.999344
vt 1.001724 0.999655
vt 0.000087 0.999655
vt 0.000087 0.000072
vt 1.001724 0.000072
vt 1.376039 0.500000
vt 1.126082 0.500000
vt 1.126082 0.250044
vt 1.376039 0.250043
vt 1.376039 0.000087
vt 1.625996 0.000087
vt 1.625996 0.250043
vt 1.875952 0.250043
vt 1.875952 0.500000
vt 1.625996 0.500000
vt 1.376039 0.749957
vt 1.625996 0.749957
vn 0.0000 -1.0000 -0.0000
vn -0.0000 1.0000 0.0000
vn 1.0000 0.0000 0.0000
vn -0.0000 -0.0000 1.0000
vn -1.0000 -0.0000 -0.0000
vn 0.0000 0.0000 -1.0000
usemtl Material.001
s off
f 1/1/1 2/2/1 3/3/1 4/4/1
f 5/5/2 6/6/2 7/7/2 8/8/2
f 1/9/3 5/10/3 8/11/3 2/12/3
f 2/12/4 8/13/4 7/14/4 3/15/4
f 3/15/5 7/16/5 6/17/5 4/18/5
f 5/19/6 1/9/6 4/18/6 6/20/6
