# Blender v2.82 (sub 7) OBJ File: 'shotguntemplate01.blend'
# www.blender.org
mtllib shotguntemplate01.mtl
o Cube
v -0.703221 -0.123640 14.634892
v -0.703221 0.123640 14.634892
v -3.660658 -0.235415 -14.634892
v -3.660658 0.235415 -14.634892
v 0.744228 -0.123640 14.634892
v 0.744228 0.123640 14.634892
v 3.701665 -0.235415 -14.634892
v 3.701665 0.235415 -14.634892
v -2.181939 -0.179527 0.000000
v -0.703221 0.000000 14.634892
v -2.181939 0.179527 0.000000
v -3.660658 0.000000 -14.634892
v 0.020504 -0.235415 -14.634892
v 0.020504 0.235415 -14.634892
v 3.701665 0.000000 -14.634892
v 2.222947 -0.179527 0.000000
v 2.222947 0.179527 0.000000
v 0.744228 0.000000 14.634892
v 0.020504 -0.123640 14.634892
v 0.020504 0.123640 14.634892
v 0.020504 0.179527 0.000000
v 0.020504 -0.179527 0.000000
v 0.020504 0.000000 14.634892
v 2.222947 0.000000 0.000000
v 0.020504 0.000000 -14.634892
v -2.181939 0.000000 0.000000
vt 0.925091 0.125000
vt 0.999039 0.125000
vt 0.999039 0.250000
vt 0.925091 0.250000
vt 0.925091 0.375000
vt 0.999039 0.375000
vt 0.999039 0.500000
vt 0.925091 0.500000
vt 0.925091 0.625000
vt 0.999039 0.625000
vt 0.999039 0.750000
vt 0.925091 0.750000
vt 0.925091 0.875000
vt 0.999039 0.875000
vt 0.999039 1.000000
vt 0.925091 1.000000
vt 0.125976 0.496616
vt 0.044343 0.496694
vt 0.088338 -0.003783
vt 0.125421 -0.003861
vt 0.622516 0.499485
vt 0.540594 0.499293
vt 0.585885 0.001253
vt 0.623685 0.001447
vt 0.704438 0.499677
vt 0.661486 0.001641
vt 0.746002 0.997717
vt 0.620157 0.997523
vt 0.496692 0.997330
vt 0.207610 0.496539
vt 0.162660 -0.003939
vt 0.252524 0.997016
vt 0.126454 0.997094
vt 0.000383 0.997171
vt 0.851143 0.875000
vt 0.851143 1.000000
vt 0.851143 0.750000
vt 0.851143 0.625000
vt 0.851143 0.500000
vt 0.851143 0.375000
vt 0.851143 0.250000
vt 0.851143 0.125000
vt 0.851143 0.000000
vt 0.925091 0.000000
vt 0.999039 0.000000
vn -0.9949 0.0000 0.1005
vn 0.0000 0.0000 -1.0000
vn 0.9949 0.0000 0.1005
vn 0.0000 0.0000 1.0000
vn 0.0000 -1.0000 0.0038
vn 0.0000 1.0000 0.0038
usemtl None
s off
f 26/1/1 11/2/1 4/3/1 12/4/1
f 25/5/2 14/6/2 8/7/2 15/8/2
f 24/9/3 17/10/3 6/11/3 18/12/3
f 23/13/4 20/14/4 2/15/4 10/16/4
f 22/17/5 16/18/5 5/19/5 19/20/5
f 21/21/6 11/22/6 2/23/6 20/24/6
f 17/25/6 21/21/6 20/24/6 6/26/6
f 8/27/6 14/28/6 21/21/6 17/25/6
f 14/28/6 4/29/6 11/22/6 21/21/6
f 9/30/5 22/17/5 19/20/5 1/31/5
f 3/32/5 13/33/5 22/17/5 9/30/5
f 13/33/5 7/34/5 16/18/5 22/17/5
f 19/35/4 23/13/4 10/16/4 1/36/4
f 5/37/4 18/12/4 23/13/4 19/35/4
f 18/12/4 6/11/4 20/14/4 23/13/4
f 16/38/3 24/9/3 18/12/3 5/37/3
f 7/39/3 15/8/3 24/9/3 16/38/3
f 15/8/3 8/7/3 17/10/3 24/9/3
f 13/40/2 25/5/2 15/8/2 7/39/2
f 3/41/2 12/4/2 25/5/2 13/40/2
f 12/4/2 4/3/2 14/6/2 25/5/2
f 9/42/1 26/1/1 12/4/1 3/41/1
f 1/43/1 10/44/1 26/1/1 9/42/1
f 10/44/1 2/45/1 11/2/1 26/1/1
