# Blender v2.82 (sub 7) OBJ File: ''
# www.blender.org
mtllib stairs.mtl
o tile_Cube.003
v -2.000000 1.999999 4.000000
v -8.000000 1.999999 8.000000
v -2.000000 1.999999 8.000000
v -8.000000 2.000000 2.000000
v -4.000000 2.000000 2.000000
v -2.000000 2.000001 -4.000000
v -8.000000 2.000000 -2.000000
v -4.000000 2.000000 -2.000000
v -8.000000 2.000001 -8.000000
v -2.000000 2.000001 -8.000000
v 8.000000 2.000001 -8.000000
v 2.000000 2.000001 -8.000000
v 8.000000 2.000000 -2.000000
v 2.000000 2.000001 -4.000000
v 4.000000 2.000000 -2.000000
v 2.000000 1.999999 8.000000
v 8.000000 1.999999 8.000000
v 2.000000 1.999999 4.000000
v 8.000000 2.000000 2.000000
v 4.000000 2.000000 2.000000
v -8.000000 0.010000 2.000000
v -6.000000 2.000000 2.000000
v -6.000000 0.010000 2.000000
v -6.000000 1.000000 2.000000
v -4.000000 1.000000 2.000000
v -8.000000 0.010000 -2.000000
v -6.000000 0.010000 -2.000000
v -6.000000 2.000000 -2.000000
v -6.000000 1.000000 -2.000000
v -4.000000 1.000000 -2.000000
v 2.000000 0.010001 -8.000000
v 2.000000 0.010001 -6.000000
v 2.000000 2.000001 -6.000000
v 2.000000 1.000001 -6.000000
v 2.000000 1.000001 -4.000000
v -2.000000 0.009999 8.000000
v -2.000000 0.009999 6.000000
v -2.000000 1.999999 6.000000
v 2.000000 0.009999 8.000000
v 2.000000 1.999999 6.000000
v 2.000000 0.009999 6.000000
v -8.000000 0.000001 -8.000000
v 8.000000 0.000001 -8.000000
v 8.000000 -0.000001 8.000000
v -8.000000 -0.000001 8.000000
v 2.000000 0.999999 4.000000
v 2.000000 0.999999 6.000000
v 8.000000 0.010000 2.000000
v -2.000000 2.000001 -6.000000
v -2.000000 1.000001 -4.000000
v -2.000000 1.000001 -6.000000
v -2.000000 0.010001 -8.000000
v -2.000000 0.010001 -6.000000
v 8.000000 0.010000 -2.000000
v 6.000000 2.000000 -2.000000
v 4.000000 1.000000 -2.000000
v 6.000000 1.000000 -2.000000
v 6.000000 0.010000 -2.000000
v 6.000000 1.000000 2.000000
v 4.000000 1.000000 2.000000
v 6.000000 2.000000 2.000000
v 6.000000 0.010000 2.000000
v -2.000000 0.999999 6.000000
v -2.000000 0.999999 4.000000
v -2.000000 -0.000001 4.000000
v 2.000000 -0.000001 4.000000
v 4.000000 -0.000000 2.000000
v 4.000000 0.000000 -2.000000
v 2.000000 0.000001 -4.000000
v -2.000000 0.000001 -4.000000
v -4.000000 0.000000 -2.000000
v -4.000000 -0.000000 2.000000
vt 0.342765 0.312432
vt 0.249478 0.250241
vt 0.342765 0.250241
vt 0.249478 0.343527
vt 0.311669 0.343527
vt 0.342765 0.436814
vt 0.249478 0.405718
vt 0.311669 0.405718
vt 0.249478 0.499005
vt 0.342765 0.499005
vt 0.498243 0.499005
vt 0.404956 0.499005
vt 0.498243 0.405718
vt 0.404956 0.436814
vt 0.436051 0.405718
vt 0.404956 0.250241
vt 0.498242 0.250241
vt 0.404956 0.312432
vt 0.498242 0.343527
vt 0.436051 0.343527
vt 0.286524 0.828388
vt 0.229300 0.828388
vt 0.229300 0.885612
vt 0.286524 0.885612
vt 0.286524 0.914225
vt 0.257912 0.914225
vt 0.257912 0.971449
vt 0.286524 0.971449
vt 0.400972 0.828388
vt 0.400972 0.885612
vt 0.458196 0.885612
vt 0.458196 0.828388
vt 0.429584 0.914225
vt 0.400972 0.914225
vt 0.400972 0.971449
vt 0.429584 0.971449
vt 0.743815 0.828585
vt 0.743815 0.885943
vt 0.686457 0.885943
vt 0.686457 0.828585
vt 0.715136 0.914622
vt 0.743815 0.914622
vt 0.743815 0.971980
vt 0.715136 0.971980
vt 0.057210 0.828470
vt 0.057210 0.885778
vt -0.000097 0.885778
vt -0.000097 0.828470
vt 0.171825 0.828470
vt 0.229133 0.828470
vt 0.229133 0.885778
vt 0.171825 0.885778
vt 0.997049 0.498330
vt 0.744467 0.498330
vt 0.744467 0.245748
vt 0.997049 0.245748
vt 0.200479 0.971739
vt 0.171825 0.971739
vt 0.171825 0.914432
vt 0.200479 0.914432
vt 0.122126 0.818002
vt 0.000272 0.818002
vt 0.000272 0.777384
vt 0.122126 0.777384
vt 0.243979 0.818002
vt 0.243979 0.777384
vt 0.887209 0.914622
vt 0.887209 0.971980
vt 0.858531 0.971980
vt 0.858531 0.914622
vt 0.858530 0.828585
vt 0.915888 0.828585
vt 0.915888 0.885943
vt 0.858531 0.885943
vt 0.122126 0.777304
vt 0.000272 0.777304
vt 0.000272 0.736686
vt 0.122126 0.736686
vt 0.243979 0.777304
vt 0.243979 0.736686
vt 0.657378 0.914405
vt 0.657378 0.971246
vt 0.628957 0.971246
vt 0.628957 0.914405
vt 0.628957 0.829142
vt 0.685799 0.829142
vt 0.685799 0.885984
vt 0.628957 0.885984
vt 0.122126 0.736607
vt 0.243979 0.736607
vt 0.243979 0.695989
vt 0.122126 0.695989
vt 0.000272 0.736607
vt 0.000272 0.695989
vt 0.515273 0.914405
vt 0.515273 0.971246
vt 0.486852 0.971246
vt 0.486852 0.914405
vt 0.515273 0.829142
vt 0.515273 0.885984
vt 0.458431 0.885984
vt 0.458431 0.829142
vt 0.122126 0.695910
vt 0.243979 0.695910
vt 0.243979 0.655292
vt 0.122126 0.655292
vt 0.000272 0.695910
vt 0.000272 0.655292
vt 0.028556 0.914432
vt 0.057210 0.914432
vt 0.057210 0.971739
vt 0.028556 0.971739
vt 0.286524 1.000061
vt 0.400972 1.000061
vt 0.858531 1.000008
vt 0.743815 1.000008
vt 0.057210 1.000393
vt 0.171825 1.000393
vt 0.515273 0.999667
vt 0.628957 0.999667
vn 0.0000 1.0000 0.0000
vn 0.0000 0.0000 -1.0000
vn 0.0000 -0.0000 1.0000
vn -1.0000 0.0000 0.0000
vn 1.0000 0.0000 0.0000
vn 0.0000 -1.0000 -0.0000
usemtl None_tile_8_custom_stairs.jpg
s off
f 1/1/1 2/2/1 3/3/1
f 2/2/1 1/1/1 4/4/1
f 4/4/1 1/1/1 5/5/1
f 6/6/1 7/7/1 8/8/1
f 7/7/1 6/6/1 9/9/1
f 6/6/1 10/10/1 9/9/1
f 11/11/1 12/12/1 13/13/1
f 14/14/1 15/15/1 13/13/1
f 12/12/1 14/14/1 13/13/1
f 16/16/1 17/17/1 18/18/1
f 17/17/1 19/19/1 18/18/1
f 20/20/1 18/18/1 19/19/1
f 15/15/1 18/18/1 20/20/1
f 15/15/1 14/14/1 18/18/1
f 8/8/1 1/1/1 6/6/1
f 5/5/1 1/1/1 8/8/1
f 1/1/1 18/18/1 14/14/1 6/6/1
f 21/21/2 4/22/2 22/23/2 23/24/2
f 24/25/2 22/26/2 5/27/2 25/28/2
f 26/29/3 27/30/3 28/31/3 7/32/3
f 28/33/3 29/34/3 30/35/3 8/36/3
f 31/37/4 32/38/4 33/39/4 12/40/4
f 33/41/4 34/42/4 35/43/4 14/44/4
f 36/45/5 37/46/5 38/47/5 3/48/5
f 39/49/4 16/50/4 40/51/4 41/52/4
f 42/53/6 43/54/6 44/55/6 45/56/6
f 18/57/4 46/58/4 47/59/4 40/60/4
f 17/61/3 16/62/3 39/63/3 44/64/3
f 19/65/5 17/61/5 44/64/5 48/66/5
f 49/67/5 6/68/5 50/69/5 51/70/5
f 52/71/5 10/72/5 49/73/5 53/74/5
f 11/75/5 13/76/5 54/77/5 43/78/5
f 12/79/2 11/75/2 43/78/2 31/80/2
f 55/81/3 15/82/3 56/83/3 57/84/3
f 54/85/3 13/86/3 55/87/3 58/88/3
f 9/89/2 10/90/2 52/91/2 42/92/2
f 7/93/4 9/89/4 42/92/4 26/94/4
f 59/95/2 60/96/2 20/97/2 61/98/2
f 48/99/2 62/100/2 61/101/2 19/102/2
f 2/103/4 4/104/4 21/105/4 45/106/4
f 3/107/3 2/103/3 45/106/3 36/108/3
f 38/109/5 63/110/5 64/111/5 1/112/5
f 5/113/4 8/114/4 30/35/4 25/28/4
f 50/69/2 6/115/2 14/116/2 35/43/2
f 1/117/3 64/111/3 46/58/3 18/118/3
f 46/58/1 64/111/1 63/110/1 47/59/1
f 63/110/3 37/46/3 41/52/3 47/59/3
f 37/46/1 36/45/1 39/49/1 41/52/1
f 20/119/5 60/96/5 56/83/5 15/120/5
f 60/96/1 59/95/1 57/84/1 56/83/1
f 62/100/5 58/88/5 57/84/5 59/95/5
f 54/85/1 58/88/1 62/100/1 48/99/1
f 50/69/1 35/43/1 34/42/1 51/70/1
f 32/38/2 53/74/2 51/70/2 34/42/2
f 52/71/1 53/74/1 32/38/1 31/37/1
f 29/34/1 24/25/1 25/28/1 30/35/1
f 27/30/4 23/24/4 24/25/4 29/34/4
f 23/24/1 27/30/1 26/29/1 21/21/1
l 1 65
l 5 72
l 8 71
l 6 70
l 14 69
l 15 68
l 20 67
l 65 70
l 71 65
l 69 66
l 68 66
l 67 66
l 48 66
l 66 44
l 54 69
l 69 68
l 54 31
l 42 70
l 26 70
l 70 71
l 72 65
l 21 65
l 45 65
l 65 36
l 72 21
l 71 72
l 26 71
l 70 52
l 69 70
l 31 69
l 68 54
l 67 68
l 48 67
l 65 66
