# Blender v2.82 (sub 7) OBJ File: ''
# www.blender.org
mtllib tiletest2.mtl
o Cube.001
v 8.000000 -0.124999 -8.000000
v 8.000000 -0.125001 8.000000
v -8.000001 -0.125001 7.999998
v -7.999996 -0.124999 -8.000003
v 8.000004 0.125001 -7.999996
v -7.999999 0.125001 -8.000000
v -8.000003 0.124999 7.999997
v 7.999995 0.124999 8.000005
vt 0.000036 1.000062
vt -0.000029 -0.000006
vt 1.000022 -0.000006
vt 1.000022 1.000369
vt 1.000013 1.000017
vt -0.000084 1.000017
vt -0.000084 0.000004
vt 1.000013 -0.000000
vt 1.884378 0.500000
vt 1.634421 0.500000
vt 1.634421 0.250043
vt 1.884378 0.250043
vt 1.884377 0.000087
vt 2.134334 0.000087
vt 2.134334 0.250043
vt 1.134508 0.250044
vt 1.384464 0.250044
vt 1.384464 0.500000
vt 1.134508 0.500000
vt 1.884378 0.749957
vt 2.134334 0.500000
vt 2.134334 0.749957
vn 0.0000 -1.0000 -0.0000
vn -0.0000 1.0000 0.0000
vn 1.0000 0.0000 0.0000
vn -0.0000 -0.0000 1.0000
vn -1.0000 -0.0000 -0.0000
vn 0.0000 0.0000 -1.0000
usemtl Material.001
s off
f 1/1/1 2/2/1 3/3/1 4/4/1
f 5/5/2 6/6/2 7/7/2 8/8/2
f 1/9/3 5/10/3 8/11/3 2/12/3
f 2/12/4 8/13/4 7/14/4 3/15/4
f 3/16/5 7/17/5 6/18/5 4/19/5
f 5/20/6 1/9/6 4/21/6 6/22/6
